<svg xmlns="http://www.w3.org/2000/svg" viewBox="0 0 24 24"><defs><style>.cls-1{fill:#fff;opacity:0}.cls-2{fill:#231f20}</style></defs><title>arrowhead-left</title><g id="Layer_2" data-name="Layer 2"><g id="arrowhead-left"><g id="arrowhead-left-2" data-name="arrowhead-left"><rect width="24" height="24" class="cls-1" transform="translate(24 0) rotate(90)"/><path d="M11.64,5.23a1,1,0,0,0-1.41.13l-5,6a1,1,0,0,0,0,1.27l4.83,6a1,1,0,0,0,.78.37,1,1,0,0,0,.78-1.63L7.29,12l4.48-5.37A1,1,0,0,0,11.64,5.23Z" class="cls-2"/><path d="M14.29,12l4.48-5.37a1,1,0,0,0-1.54-1.28l-5,6a1,1,0,0,0,0,1.27l4.83,6a1,1,0,0,0,.78.37,1,1,0,0,0,.78-1.63Z" class="cls-2"/></g></g></g></svg>