<svg xmlns="http://www.w3.org/2000/svg" viewBox="0 0 24 24"><defs><style>.cls-1{fill:#fff;opacity:0}.cls-2{fill:#231f20}</style></defs><title>briefcase</title><g id="Layer_2" data-name="Layer 2"><g id="briefcase"><g id="briefcase-2" data-name="briefcase"><rect width="24" height="24" class="cls-1"/><path d="M7,21H17V7H16V5.5A2.5,2.5,0,0,0,13.5,3h-3A2.5,2.5,0,0,0,8,5.5V7H7ZM10,5.5a.5.5,0,0,1,.5-.5h3a.5.5,0,0,1,.5.5V7H10Z" class="cls-2"/><path d="M19,7V21a3,3,0,0,0,3-3V10A3,3,0,0,0,19,7Z" class="cls-2"/><path d="M5,7a3,3,0,0,0-3,3v8a3,3,0,0,0,3,3Z" class="cls-2"/></g></g></g></svg>