<svg xmlns="http://www.w3.org/2000/svg" viewBox="0 0 24 24"><defs><style>.cls-1{fill:#fff;opacity:0}.cls-2{fill:#231f20}</style></defs><title>external-link</title><g id="Layer_2" data-name="Layer 2"><g id="external-link"><g id="external-link-2" data-name="external-link"><rect width="24" height="24" class="cls-1"/><path d="M20,11a1,1,0,0,0-1,1v6a1,1,0,0,1-1,1H6a1,1,0,0,1-1-1V6A1,1,0,0,1,6,5h6a1,1,0,0,0,0-2H6A3,3,0,0,0,3,6V18a3,3,0,0,0,3,3H18a3,3,0,0,0,3-3V12A1,1,0,0,0,20,11Z" class="cls-2"/><path d="M16,5h1.58l-6.29,6.28a1,1,0,0,0,0,1.42,1,1,0,0,0,1.42,0L19,6.42V8a1,1,0,0,0,1,1h0a1,1,0,0,0,1-1V4a1,1,0,0,0-1-1L16,3h0a1,1,0,0,0,0,2Z" class="cls-2"/></g></g></g></svg>