<svg xmlns="http://www.w3.org/2000/svg" viewBox="0 0 24 24"><defs><style>.cls-1{fill:#fff;opacity:0}.cls-2{fill:#231f20}</style></defs><title>keypad</title><g id="Layer_2" data-name="Layer 2"><g id="keypad"><g id="keypad-2" data-name="keypad"><rect width="24" height="24" class="cls-1"/><path d="M5,2A3,3,0,1,0,8,5,3,3,0,0,0,5,2Z" class="cls-2"/><path d="M12,2a3,3,0,1,0,3,3A3,3,0,0,0,12,2Z" class="cls-2"/><path d="M19,8a3,3,0,1,0-3-3A3,3,0,0,0,19,8Z" class="cls-2"/><path d="M5,9a3,3,0,1,0,3,3A3,3,0,0,0,5,9Z" class="cls-2"/><path d="M12,9a3,3,0,1,0,3,3A3,3,0,0,0,12,9Z" class="cls-2"/><path d="M19,9a3,3,0,1,0,3,3A3,3,0,0,0,19,9Z" class="cls-2"/><path d="M5,16a3,3,0,1,0,3,3A3,3,0,0,0,5,16Z" class="cls-2"/><path d="M12,16a3,3,0,1,0,3,3A3,3,0,0,0,12,16Z" class="cls-2"/><path d="M19,16a3,3,0,1,0,3,3A3,3,0,0,0,19,16Z" class="cls-2"/></g></g></g></svg>