<svg xmlns="http://www.w3.org/2000/svg" viewBox="0 0 24 24"><defs><style>.cls-1{fill:#fff;opacity:0}.cls-2{fill:#231f20}</style></defs><title>person-add</title><g id="Layer_2" data-name="Layer 2"><g id="person-add"><g id="person-add-2" data-name="person-add"><rect width="24" height="24" class="cls-1"/><path d="M21,6H20V5a1,1,0,0,0-2,0V6H17a1,1,0,0,0,0,2h1V9a1,1,0,0,0,2,0V8h1a1,1,0,0,0,0-2Z" class="cls-2"/><path d="M10,11A4,4,0,1,0,6,7,4,4,0,0,0,10,11Z" class="cls-2"/><path d="M16,21a1,1,0,0,0,1-1A7,7,0,0,0,3,20a1,1,0,0,0,1,1" class="cls-2"/></g></g></g></svg>