<svg xmlns="http://www.w3.org/2000/svg" xmlns:xlink="http://www.w3.org/1999/xlink" id="Layer_1" x="0" y="0" enable-background="new 0 0 774.1 409.1" version="1.1" viewBox="0 0 774.1 409.1" xml:space="preserve"><style type="text/css">.st0{fill:#000}.st1{fill:#fa9201}.st2{fill:#7fbcc6}</style><switch><g><g><polygon points="458.6 83.6 425.5 52.6 441.5 37.7 474.6 68.6" class="st0"/><path d="M425.5,52.6L409.8,38c-11.1-10.4-29.2-10.4-40.3,0l-4.7,4.4l-16-15l4.7-4.4c19.9-18.6,52.4-18.6,72.3,0 l15.6,14.6L425.5,52.6z" class="st1"/><polygon points="346.7 59.4 330.6 44.4 348.8 27.4 364.8 42.4" class="st2"/><path d="M309.2,151.1l-10.1-9.5c-9.7-9-15-21-15-33.8s5.3-24.8,15-33.8l31.6-29.5l16,15L315.1,89 c-5.4,5-8.4,11.7-8.4,18.8s3,13.8,8.4,18.8l10.1,9.5L309.2,151.1z" class="st0"/><path d="M389.7,206.6c-13.7,0-26.5-5-36.2-14l-44.4-41.5l16-15l44.4,41.5c5.4,5,12.5,7.8,20.2,7.8 c7.6,0,14.8-2.8,20.2-7.8l16,15C416.2,201.6,403.3,206.6,389.7,206.6z" class="st2"/><polygon points="425.9 192.6 409.8 177.6 427.5 161 443.5 176" class="st1"/><ellipse cx="466.6" cy="76.2" class="st0" rx="15" ry="14"/></g><g><g><path d="M76.6,336.3H33.1c-1.1,0-2.3-0.1-3.6-0.4c-1.3-0.3-2.6-0.7-3.8-1.2c-1.3-0.6-2.5-1.3-3.6-2.2 c-1.1-0.9-2.2-1.9-3-3.2c-0.9-1.3-1.6-2.7-2.1-4.4c-0.5-1.7-0.8-3.5-0.8-5.6v-32.7c0-1.1,0.1-2.3,0.4-3.6 c0.3-1.3,0.7-2.6,1.2-3.8c0.6-1.3,1.3-2.5,2.2-3.6c0.9-1.1,2-2.2,3.2-3c1.3-0.9,2.7-1.6,4.3-2.1c1.6-0.5,3.5-0.8,5.6-0.8h43.5 v12.1H33.1c-1.6,0-2.8,0.4-3.6,1.3c-0.8,0.8-1.3,2.1-1.3,3.7v32.6c0,1.5,0.4,2.7,1.3,3.6s2,1.3,3.6,1.3h43.5V336.3z" class="st0"/><path d="M166.3,309.4c0,4.1-0.7,7.8-2.1,11.2c-1.4,3.4-3.3,6.3-5.8,8.8c-2.5,2.5-5.4,4.4-8.8,5.8 c-3.4,1.4-7.1,2.1-11.1,2.1h-16.3c-4,0-7.7-0.7-11.1-2.1c-3.4-1.4-6.3-3.3-8.8-5.8c-2.5-2.5-4.4-5.4-5.8-8.8 c-1.4-3.4-2.1-7.1-2.1-11.2v-12.7c0-4,0.7-7.7,2.1-11.2c1.4-3.4,3.3-6.4,5.8-8.8c2.5-2.5,5.4-4.4,8.8-5.8 c3.4-1.4,7.1-2.1,11.1-2.1h16.3c4,0,7.7,0.7,11.1,2.1c3.4,1.4,6.3,3.3,8.8,5.8c2.5,2.5,4.4,5.4,5.8,8.8 c1.4,3.4,2.1,7.1,2.1,11.2V309.4z M154.3,296.7c0-2.4-0.4-4.5-1.1-6.5s-1.8-3.6-3.2-5c-1.4-1.4-3-2.4-5-3.2s-4.1-1.1-6.4-1.1 h-16.3c-2.4,0-4.5,0.4-6.4,1.1s-3.6,1.8-5,3.2c-1.4,1.4-2.5,3-3.2,5c-0.8,1.9-1.1,4.1-1.1,6.5v12.7c0,2.4,0.4,4.5,1.1,6.5 c0.8,1.9,1.8,3.6,3.2,5s3.1,2.4,5,3.2c1.9,0.8,4.1,1.1,6.4,1.1h16.2c2.3,0,4.5-0.4,6.4-1.1c1.9-0.8,3.6-1.8,5-3.2s2.5-3,3.2-5 c0.8-1.9,1.1-4.1,1.1-6.5V296.7z" class="st0"/><path d="M254.2,331.1c0,0.9-0.2,1.7-0.5,2.4c-0.3,0.7-0.8,1.4-1.3,1.9s-1.2,1-1.9,1.3c-0.7,0.3-1.5,0.5-2.4,0.5 c-0.7,0-1.5-0.1-2.3-0.4c-0.8-0.3-1.4-0.7-2-1.3l-44.1-46v46.9h-12.1v-61.4c0-1.2,0.3-2.4,1-3.4c0.7-1,1.6-1.8,2.7-2.3 c1.1-0.5,2.3-0.6,3.5-0.3c1.2,0.2,2.2,0.8,3.1,1.7l44.1,46v-46.9h12.1V331.1z" class="st0"/><path d="M337.8,281.8h-26.6v54.5h-12.1v-54.5h-26.6v-12.1h65.3V281.8z" class="st0"/><path d="M422.7,292.1c0,2.8-0.3,5.2-1,7.4c-0.7,2.2-1.6,4.1-2.8,5.7c-1.2,1.7-2.5,3.1-4,4.2 c-1.5,1.2-3.1,2.1-4.8,2.9s-3.3,1.3-5,1.6c-1.7,0.3-3.3,0.5-4.8,0.5l25.2,21.8h-18.6l-25.1-21.8h-8.7v-12.1h27.3 c1.5-0.1,2.9-0.4,4.2-1c1.3-0.5,2.3-1.2,3.2-2.1c0.9-0.9,1.6-1.9,2.1-3.1c0.5-1.2,0.7-2.6,0.7-4.2v-7.6c0-0.7-0.1-1.2-0.3-1.6 c-0.2-0.4-0.4-0.6-0.6-0.8c-0.3-0.2-0.5-0.3-0.8-0.3c-0.3,0-0.6,0-0.8,0h-39.8v54.5h-12.1v-60.4c0-0.8,0.2-1.6,0.5-2.4 c0.3-0.7,0.7-1.4,1.3-1.9c0.5-0.6,1.2-1,1.9-1.3c0.7-0.3,1.5-0.5,2.4-0.5h45.8c2.7,0,5,0.5,6.8,1.5c1.9,1,3.4,2.2,4.5,3.7 c1.2,1.5,2,3.1,2.5,4.8c0.5,1.7,0.8,3.3,0.8,4.8V292.1z" class="st0"/><path d="M514.1,309.4c0,4.1-0.7,7.8-2.1,11.2c-1.4,3.4-3.3,6.3-5.8,8.8c-2.5,2.5-5.4,4.4-8.8,5.8 c-3.4,1.4-7.1,2.1-11.1,2.1H470c-4,0-7.7-0.7-11.1-2.1c-3.4-1.4-6.3-3.3-8.8-5.8c-2.5-2.5-4.4-5.4-5.8-8.8 c-1.4-3.4-2.1-7.1-2.1-11.2v-12.7c0-4,0.7-7.7,2.1-11.2c1.4-3.4,3.3-6.4,5.8-8.8c2.5-2.5,5.4-4.4,8.8-5.8 c3.4-1.4,7.1-2.1,11.1-2.1h16.3c4,0,7.7,0.7,11.1,2.1c3.4,1.4,6.3,3.3,8.8,5.8c2.5,2.5,4.4,5.4,5.8,8.8 c1.4,3.4,2.1,7.1,2.1,11.2V309.4z M502,296.7c0-2.4-0.4-4.5-1.1-6.5s-1.8-3.6-3.2-5c-1.4-1.4-3-2.4-5-3.2s-4.1-1.1-6.4-1.1H470 c-2.4,0-4.5,0.4-6.4,1.1s-3.6,1.8-5,3.2c-1.4,1.4-2.5,3-3.2,5c-0.8,1.9-1.1,4.1-1.1,6.5v12.7c0,2.4,0.4,4.5,1.1,6.5 c0.8,1.9,1.8,3.6,3.2,5s3.1,2.4,5,3.2c1.9,0.8,4.1,1.1,6.4,1.1h16.2c2.3,0,4.5-0.4,6.4-1.1c1.9-0.8,3.6-1.8,5-3.2s2.5-3,3.2-5 c0.8-1.9,1.1-4.1,1.1-6.5V296.7z" class="st0"/><path d="M596.6,336.3h-55c-0.9,0-1.7-0.2-2.4-0.5c-0.7-0.3-1.4-0.7-1.9-1.3c-0.5-0.5-1-1.2-1.3-1.9 c-0.3-0.7-0.5-1.5-0.5-2.4v-60.4h12.1v54.5h49V336.3z" class="st0"/><path d="M676,336.3h-55c-0.9,0-1.7-0.2-2.4-0.5c-0.7-0.3-1.4-0.7-1.9-1.3c-0.5-0.5-1-1.2-1.3-1.9 c-0.3-0.7-0.5-1.5-0.5-2.4v-60.4H627v54.5h49V336.3z" class="st0"/><path d="M759.7,336.3h-12.1V320h-42.4v16.3h-12.1V303c0-4.9,0.8-9.3,2.5-13.4s4-7.6,7-10.5c3-2.9,6.5-5.2,10.5-6.9 c4.1-1.6,8.5-2.5,13.3-2.5h27.2c0.8,0,1.6,0.2,2.4,0.5c0.7,0.3,1.4,0.7,1.9,1.3s1,1.2,1.3,1.9c0.3,0.7,0.5,1.5,0.5,2.4V336.3z M705.2,307.9h42.4v-26.1h-21.2c-0.4,0-1.2,0.1-2.3,0.2c-1.2,0.1-2.6,0.4-4.1,0.8c-1.6,0.4-3.2,1.1-4.9,2 c-1.7,0.9-3.3,2.1-4.8,3.7c-1.5,1.6-2.7,3.5-3.6,5.9c-0.9,2.4-1.4,5.2-1.4,8.6V307.9z" class="st0"/></g><g><path d="M187.4,379l-1.7,2.1c-1.9-1.9-4.5-3.1-7.2-3.1c-5.5,0-10,4.3-10,9.7c0,5.4,4.4,9.7,10,9.7 c2.7,0,5.3-1.1,7.2-2.9l1.7,1.9c-2.4,2.3-5.7,3.8-9.1,3.8c-7.1,0-12.7-5.5-12.7-12.4c0-6.9,5.7-12.3,12.8-12.3 C181.8,375.5,185,376.8,187.4,379z" class="st0"/><path d="M222.2,387.8c0,6.9-5.7,12.4-12.8,12.4c-7.2,0-12.8-5.5-12.8-12.4c0-6.9,5.7-12.3,12.8-12.3 C216.6,375.5,222.2,380.9,222.2,387.8z M199.4,387.8c0,5.4,4.6,9.7,10,9.7c5.5,0,9.9-4.3,9.9-9.7s-4.5-9.7-9.9-9.7 C203.9,378.1,199.4,382.4,199.4,387.8z" class="st0"/><path d="M251.8,400l-14.7-19.7V400h-2.8v-24.5h2.9l14.7,19.7v-19.7h2.8V400H251.8z" class="st0"/><path d="M286.7,400L272,380.4V400h-2.8v-24.5h2.9l14.7,19.7v-19.7h2.8V400H286.7z" class="st0"/><path d="M306.8,378.2v8.1h12.4v2.7h-12.4v8.4h14.3v2.7H304v-24.5h16.6v2.7H306.8z" class="st0"/><path d="M353.2,379l-1.7,2.1c-1.9-1.9-4.5-3.1-7.2-3.1c-5.5,0-10,4.3-10,9.7c0,5.4,4.4,9.7,10,9.7 c2.7,0,5.3-1.1,7.2-2.9l1.7,1.9c-2.4,2.3-5.7,3.8-9.1,3.8c-7.1,0-12.7-5.5-12.7-12.4c0-6.9,5.7-12.3,12.8-12.3 C347.6,375.5,350.8,376.8,353.2,379z" class="st0"/><path d="M372.7,378.2V400h-2.8v-21.8h-8v-2.7h18.8v2.7H372.7z" class="st0"/><path d="M391.8,400v-24.5h2.8V400H391.8z" class="st0"/><path d="M426.5,400l-14.7-19.7V400H409v-24.5h2.9l14.7,19.7v-19.7h2.8V400H426.5z" class="st0"/><path d="M463.4,388.1v8.9c-2.4,1.9-5.8,3.2-9.1,3.2c-7.1,0-12.8-5.5-12.8-12.4c0-6.9,5.7-12.3,12.9-12.3 c3.4,0,6.7,1.3,9,3.4l-1.6,2.1c-2-1.8-4.7-2.8-7.4-2.8c-5.6,0-10.1,4.3-10.1,9.7c0,5.4,4.5,9.7,10.1,9.7c2.2,0,4.6-0.8,6.4-2.1 v-7.4H463.4z" class="st0"/><path d="M503.7,375.5c7.1,0,12.6,5.3,12.6,12.3s-5.5,12.3-12.7,12.3h-9.8v-24.5H503.7z M496.6,397.4h7.1 c5.5,0,9.7-4.1,9.7-9.6c0-5.5-4.3-9.6-9.8-9.6h-7V397.4z" class="st0"/><path d="M551.1,387.8c0,6.9-5.7,12.4-12.8,12.4c-7.2,0-12.8-5.5-12.8-12.4c0-6.9,5.7-12.3,12.8-12.3 C545.5,375.5,551.1,380.9,551.1,387.8z M528.3,387.8c0,5.4,4.6,9.7,10,9.7c5.5,0,9.9-4.3,9.9-9.7s-4.5-9.7-9.9-9.7 C532.9,378.1,528.3,382.4,528.3,387.8z" class="st0"/><path d="M570.4,378.2V400h-2.8v-21.8h-8v-2.7h18.8v2.7H570.4z" class="st0"/><path d="M604.5,377.7l-1.2,2.6c-2.2-1.5-4.8-2.1-6.8-2.1c-3.2,0-5.2,1.2-5.2,3.3c0,6.3,13.8,3,13.8,11.9 c0,4.1-3.6,6.7-8.9,6.7c-3.6,0-7.1-1.5-9.4-3.7l1.3-2.5c2.3,2.2,5.4,3.5,8.2,3.5c3.5,0,5.7-1.4,5.7-3.8c0-6.4-13.8-3-13.8-11.8 c0-3.9,3.4-6.3,8.5-6.3C599.6,375.4,602.5,376.3,604.5,377.7z" class="st0"/></g></g></g></switch></svg>