<svg xmlns="http://www.w3.org/2000/svg" viewBox="0 0 24 24"><defs><style>.cls-1{fill:none;opacity:0}.cls-2{fill:#231f20}</style></defs><title>archive</title><g id="Layer_2" data-name="Layer 2"><g id="archive"><g id="archive-2" data-name="archive"><rect width="24" height="24" class="cls-1" transform="translate(24 0) rotate(90)"/><path d="M21,6a3,3,0,0,0-3-3H6A3,3,0,0,0,4,8.22V18a3,3,0,0,0,3,3H17a3,3,0,0,0,3-3V8.22A3,3,0,0,0,21,6ZM6,5H18a1,1,0,0,1,0,2H6A1,1,0,0,1,6,5ZM18,18a1,1,0,0,1-1,1H7a1,1,0,0,1-1-1V9H18Z" class="cls-2"/><rect width="6" height="2" x="9" y="12" class="cls-2" rx=".87" ry=".87"/></g></g></g></svg>