<svg xmlns="http://www.w3.org/2000/svg" viewBox="0 0 24 24"><defs><style>.cls-1{fill:#fff;opacity:0}.cls-2{fill:#231f20}</style></defs><title>arrowhead-right</title><g id="Layer_2" data-name="Layer 2"><g id="arrowhead-right"><g id="arrowhead-right-2" data-name="arrowhead-right"><rect width="24" height="24" class="cls-1" transform="translate(0 24) rotate(-90)"/><path d="M18.78,11.37,14,5.37a1,1,0,0,0-1.41-.15,1,1,0,0,0-.15,1.41L16.71,12l-4.48,5.37a1,1,0,0,0,.13,1.41A1,1,0,0,0,13,19a1,1,0,0,0,.77-.36l5-6A1,1,0,0,0,18.78,11.37Z" class="cls-2"/><path d="M7,5.37A1,1,0,0,0,5.39,6.63L9.71,12,5.23,17.36a1,1,0,0,0,.13,1.41A1,1,0,0,0,6,19a1,1,0,0,0,.77-.36l5-6a1,1,0,0,0,0-1.27Z" class="cls-2"/></g></g></g></svg>