<svg xmlns="http://www.w3.org/2000/svg" viewBox="0 0 24 24"><defs><style>.cls-1{fill:#fff;opacity:0}.cls-2{fill:#231f20}</style></defs><title>bar-chart-2</title><g id="Layer_2" data-name="Layer 2"><g id="bar-chart-2"><g id="bar-chart-2-2" data-name="bar-chart-2"><rect width="24" height="24" class="cls-1" transform="translate(24 0) rotate(90)"/><path d="M12,8a1,1,0,0,0-1,1V20a1,1,0,0,0,2,0V9A1,1,0,0,0,12,8Z" class="cls-2"/><path d="M19,4a1,1,0,0,0-1,1V20a1,1,0,0,0,2,0V5A1,1,0,0,0,19,4Z" class="cls-2"/><path d="M5,12a1,1,0,0,0-1,1v7a1,1,0,0,0,2,0V13A1,1,0,0,0,5,12Z" class="cls-2"/></g></g></g></svg>