<svg xmlns="http://www.w3.org/2000/svg" viewBox="0 0 24 24"><defs><style>.cls-1{fill:#fff;opacity:0}.cls-2{fill:#231f20}</style></defs><title>grid</title><g id="Layer_2" data-name="Layer 2"><g id="grid"><g id="grid-2" data-name="grid"><rect width="24" height="24" class="cls-1"/><path d="M9,3H5A2,2,0,0,0,3,5V9a2,2,0,0,0,2,2H9a2,2,0,0,0,2-2V5A2,2,0,0,0,9,3ZM5,9V5H9V9Z" class="cls-2"/><path d="M19,3H15a2,2,0,0,0-2,2V9a2,2,0,0,0,2,2h4a2,2,0,0,0,2-2V5A2,2,0,0,0,19,3ZM15,9V5h4V9Z" class="cls-2"/><path d="M9,13H5a2,2,0,0,0-2,2v4a2,2,0,0,0,2,2H9a2,2,0,0,0,2-2V15A2,2,0,0,0,9,13ZM5,19V15H9v4Z" class="cls-2"/><path d="M19,13H15a2,2,0,0,0-2,2v4a2,2,0,0,0,2,2h4a2,2,0,0,0,2-2V15A2,2,0,0,0,19,13Zm-4,6V15h4v4Z" class="cls-2"/></g></g></g></svg>