<svg xmlns="http://www.w3.org/2000/svg" viewBox="0 0 24 24"><defs><style>.cls-1{fill:#fff;opacity:0}.cls-2{fill:#231f20}</style></defs><title>pause-circle</title><g id="Layer_2" data-name="Layer 2"><g id="pause-circle"><g id="pause-circle-2" data-name="pause-circle"><rect width="24" height="24" class="cls-1"/><path d="M12,2A10,10,0,1,0,22,12,10,10,0,0,0,12,2Zm0,18a8,8,0,1,1,8-8A8,8,0,0,1,12,20Z" class="cls-2"/><path d="M15,8a1,1,0,0,0-1,1v6a1,1,0,0,0,2,0V9A1,1,0,0,0,15,8Z" class="cls-2"/><path d="M9,8A1,1,0,0,0,8,9v6a1,1,0,0,0,2,0V9A1,1,0,0,0,9,8Z" class="cls-2"/></g></g></g></svg>